<?xml version="1.0" encoding="UTF-8" standalone="no"?>
<!DOCTYPE svg PUBLIC "-//W3C//DTD SVG 1.1//EN" "http://www.w3.org/Graphics/SVG/1.1/DTD/svg11.dtd">
<svg width="100%" height="100%" viewBox="0 0 512 512" version="1.1" xmlns="http://www.w3.org/2000/svg" xmlns:xlink="http://www.w3.org/1999/xlink" xml:space="preserve" xmlns:serif="http://www.serif.com/" style="fill-rule:evenodd;clip-rule:evenodd;stroke-linejoin:round;stroke-miterlimit:2;">
    <g transform="matrix(4.58736,0,0,6.13261,2.5207,-3.5791)">
        <path d="M111.061,17.479C111.061,8.154 100.941,0.584 88.474,0.584L22.037,0.584C9.571,0.584 -0.549,8.154 -0.549,17.479L-0.549,67.176C-0.549,76.501 9.571,84.072 22.037,84.072L88.474,84.072C100.941,84.072 111.061,76.501 111.061,67.176L111.061,17.479Z" style="fill:rgb(0,150,136);"/>
    </g>
    <g transform="matrix(3.47057,2.77556e-17,-2.77556e-17,3.28107,0.261392,-0.817448)">
        <ellipse cx="73.601" cy="78.285" rx="73.706" ry="77.927" style="fill:rgb(0,150,136);"/>
    </g>
    <g transform="matrix(1,0,0,1,50.0653,390.119)">
        <text x="0px" y="0px" style="font-family:'IPAexGothic', sans-serif;font-size:360px;fill:white;">ぱ</text>
    </g>
</svg>
